<svg width="16" height="17" viewBox="0 0 16 17" fill="none" xmlns="http://www.w3.org/2000/svg">
<path d="M12.9997 16.4998C12.8663 16.5078 12.7327 16.4874 12.6078 16.44C12.4828 16.3926 12.3693 16.3192 12.2748 16.2247C12.1803 16.1302 12.1069 16.0167 12.0595 15.8917C12.0121 15.7668 11.9917 15.6332 11.9997 15.4997V6.49975C11.9917 6.36634 12.0121 6.23274 12.0595 6.10778C12.1069 5.98282 12.1803 5.86934 12.2748 5.77483C12.3693 5.68032 12.4828 5.60694 12.6078 5.55952C12.7327 5.5121 12.8663 5.49173 12.9997 5.49975H14.9997C15.1332 5.49173 15.2668 5.5121 15.3917 5.55952C15.5167 5.60694 15.6302 5.68032 15.7247 5.77483C15.8192 5.86934 15.8926 5.98282 15.94 6.10778C15.9874 6.23274 16.0078 6.36634 15.9998 6.49975V15.4997C16.0078 15.6332 15.9874 15.7668 15.94 15.8917C15.8926 16.0167 15.8192 16.1302 15.7247 16.2247C15.6302 16.3192 15.5167 16.3926 15.3917 16.44C15.2668 16.4874 15.1332 16.5078 14.9997 16.4998H12.9997ZM6.99975 16.4998C6.8663 16.5079 6.73263 16.4877 6.60759 16.4403C6.48256 16.393 6.36901 16.3196 6.27447 16.225C6.17993 16.1305 6.10655 16.0169 6.05919 15.8919C6.01183 15.7669 5.99157 15.6332 5.99975 15.4997V1.49975C5.99173 1.36634 6.0121 1.23274 6.05952 1.10778C6.10694 0.982819 6.18032 0.869339 6.27483 0.774831C6.36934 0.680323 6.48282 0.606938 6.60778 0.55952C6.73274 0.512102 6.86634 0.49173 6.99975 0.49975H8.99975C9.13316 0.49173 9.26676 0.512102 9.39172 0.55952C9.51668 0.606938 9.63016 0.680323 9.72467 0.774831C9.81918 0.869339 9.89256 0.982819 9.93998 1.10778C9.9874 1.23274 10.0078 1.36634 9.99975 1.49975V15.4997C10.0079 15.6332 9.98767 15.7669 9.94031 15.8919C9.89295 16.0169 9.81957 16.1305 9.72503 16.225C9.63048 16.3196 9.51694 16.393 9.3919 16.4403C9.26687 16.4877 9.1332 16.5079 8.99975 16.4998H6.99975ZM0.99975 16.4998C0.866336 16.5078 0.732739 16.4874 0.607779 16.44C0.482819 16.3926 0.369339 16.3192 0.274831 16.2247C0.180323 16.1302 0.106938 16.0167 0.0595197 15.8917C0.0121017 15.7668 -0.00826999 15.6332 -0.000250349 15.4997V11.4997C-0.00826999 11.3663 0.0121017 11.2327 0.0595197 11.1078C0.106938 10.9828 0.180323 10.8693 0.274831 10.7748C0.369339 10.6803 0.482819 10.6069 0.607779 10.5595C0.732739 10.5121 0.866336 10.4917 0.99975 10.4997H2.99975C3.13312 10.4919 3.26665 10.5124 3.39154 10.5598C3.51642 10.6073 3.62984 10.6807 3.72431 10.7752C3.81878 10.8697 3.89217 10.9831 3.93965 11.108C3.98712 11.2328 4.00761 11.3664 3.99975 11.4997V15.4997C4.00777 15.6332 3.9874 15.7668 3.93998 15.8917C3.89256 16.0167 3.81918 16.1302 3.72467 16.2247C3.63016 16.3192 3.51668 16.3926 3.39172 16.44C3.26676 16.4874 3.13316 16.5078 2.99975 16.4998H0.99975Z" fill="white"/>
</svg>
