<svg width="16" height="17" viewBox="0 0 16 17" fill="none" xmlns="http://www.w3.org/2000/svg">
<g clip-path="url(#clip0_209_551)">
<path d="M10.7577 0.502251C9.33636 0.666511 8.52937 2.22477 8.42668 3.57825C8.25879 4.7815 8.78407 6.31688 10.0479 6.59355C11.1431 6.69124 12.0144 5.6623 12.3724 4.68078C12.7951 3.45224 12.8074 1.81161 11.7818 0.891228C11.4969 0.64433 11.1311 0.494347 10.7577 0.502251ZM4.96003 0.56667C3.77739 0.652222 3.17123 2.0266 3.25349 3.12983C3.26355 4.60494 4.07362 6.26401 5.55084 6.61419C6.65251 6.73332 7.38703 5.56492 7.45548 4.54329C7.59607 2.9798 6.90333 1.0858 5.33461 0.613746C5.21268 0.580071 5.08623 0.563358 4.96003 0.56667V0.56667ZM14.4629 5.30393C12.8762 5.42023 11.8728 7.11123 11.8038 8.63926C11.7203 9.63439 12.3632 10.8858 13.4458 10.8173C15.0647 10.6456 16.0407 8.8413 16.0005 7.27357C15.9901 6.37102 15.4181 5.34155 14.4629 5.30393ZM0.0122927 7.36668C-0.134623 9.05983 1.05018 10.9736 2.77131 11.0802C3.81448 11.0105 4.30638 9.79892 4.18682 8.84035C4.09155 7.42601 3.14589 5.97768 1.91722 5.78848C0.688559 5.59927 -0.00718837 6.4673 0.0122927 7.36668ZM8.18213 8.81105C6.56855 8.81481 5.09325 9.86987 4.30452 11.2974C3.64368 12.3641 3.10343 13.5718 3.00068 14.8463C3.02316 15.8292 3.961 16.6473 4.9014 16.4515C6.24275 16.2774 7.44138 15.3459 8.83622 15.5204C9.9954 15.613 10.9514 16.5118 12.1218 16.4988C13.2581 16.5414 13.9137 15.2392 13.4803 14.2192C13.014 12.7587 12.1098 11.4886 11.1394 10.3446C10.3653 9.50143 9.35137 8.77371 8.18213 8.81105Z" fill="white"/>
</g>
<defs>
<clipPath id="clip0_209_551">
<rect width="16" height="16" fill="white" transform="translate(0 0.5)"/>
</clipPath>
</defs>
</svg>
