<svg width="16" height="17" viewBox="0 0 16 17" fill="none" xmlns="http://www.w3.org/2000/svg">
<path d="M3.2 5.3C3.20021 4.66945 3.32461 4.04511 3.56611 3.46263C3.80761 2.88015 4.16147 2.35095 4.60749 1.90522C5.05351 1.4595 5.58295 1.106 6.16559 0.864888C6.74822 0.623779 7.37264 0.49979 8.0032 0.5C8.63375 0.50021 9.25809 0.624616 9.84057 0.866113C10.423 1.10761 10.9523 1.46147 11.398 1.90749C11.8437 2.35351 12.1972 2.88295 12.4383 3.46559C12.6794 4.04822 12.8034 4.67265 12.8032 5.3032C12.8028 6.57666 12.2965 7.7978 11.3957 8.69798C10.4949 9.59815 9.27346 10.1036 8 10.1032C6.72654 10.1028 5.5054 9.59649 4.60522 8.69571C3.70505 7.79494 3.19958 6.57346 3.2 5.3ZM11.2 10.1H4.8C2.16 10.1 0 11.54 0 13.3V16.5H16V13.3C16 11.54 13.84 10.1 11.2 10.1Z" fill="white"/>
</svg>
